# xmcd
#
# Track frame offsets:
#	150
#	15247
#	27507
#	39330
#	51237
#	63307
#	76702
#	90230
#	103130
#	115445
#	125482
#	137515
#
# Disc length: 2003 seconds
#
# Revision: 0
# Processed by: cddbd v1.5.1PL0 Copyright (c) Steve Scherf et al.
# Submitted via: EasyCDDAExtractor 8.2.1.1
#
DISCID=8f07d10c
DTITLE=Various Artist - The Roots Of Country
DYEAR=1939
DGENRE=Country
TTITLE0=The Carter Family - Engine One-Forty-Three
TTITLE1=Hank Williams - Lovesick Blues
TTITLE2=Gene Autry - Back In The Saddle Again
TTITLE3=Bob Wills and His Texas Playboys - New San Antonio Rose
TTITLE4=Roy Rodgers - A Gay Ranchero
TTITLE5=The Rouse Brothers - Orange Blossom Special
TTITLE6=Jimmie Rodgers - Mule Skinner Blues (Blue Yodel #8)
TTITLE7=The Cartwright Brothers - On The Old Chisholm Trail
TTITLE8=The Tune Wranglers - Chicken Reel Stomp
TTITLE9=The Delmore Brothers - The Cannon Ball
TTITLE10=The Sons Of The Pioneers - Tumbling Tumbleweeds
TTITLE11=Hank Snow - I'm Movin' On
EXTD=
EXTT0=
EXTT1=
EXTT2=
EXTT3=
EXTT4=
EXTT5=
EXTT6=
EXTT7=
EXTT8=
EXTT9=
EXTT10=
EXTT11=
PLAYORDER=
